<?xml version="1.0" standalone="no"?>
<!DOCTYPE svg PUBLIC "-//W3C//DTD SVG 20010904//EN"
 "http://www.w3.org/TR/2001/REC-SVG-20010904/DTD/svg10.dtd">
<svg version="1.0" xmlns="http://www.w3.org/2000/svg"
 width="416.000000pt" height="416.000000pt" viewBox="0 0 416.000000 416.000000"
 preserveAspectRatio="xMidYMid meet">

<g transform="translate(0.000000,416.000000) scale(0.100000,-0.100000)"
fill="#000000" stroke="none">
<path d="M1829 3765 c-350 -55 -665 -208 -913 -446 -164 -157 -268 -299 -366
-501 -52 -106 -74 -167 -120 -323 -33 -112 -45 -217 -45 -415 0 -175 4 -222
23 -320 76 -377 270 -713 559 -965 196 -172 467 -313 711 -371 212 -50 481
-59 693 -23 376 64 736 263 985 547 529 603 575 1466 114 2124 -83 119 -268
304 -390 390 -226 160 -488 265 -755 303 -123 18 -380 18 -496 0z m331 -115
c0 -13 -70 -13 -90 0 -11 7 0 10 38 10 28 0 52 -4 52 -10z m-157 -15 c-1 -5
-19 -12 -40 -16 -32 -4 -26 -6 40 -13 l77 -8 0 -39 c0 -32 4 -39 19 -39 11 0
22 -6 25 -12 5 -10 7 -10 12 0 3 6 14 12 25 12 16 0 19 7 19 40 0 22 5 40 10
40 6 0 10 -18 10 -40 0 -33 3 -40 20 -40 16 0 20 7 20 38 0 26 6 42 20 52 29
21 25 28 -17 33 -21 2 -6 2 32 0 39 -2 98 -11 132 -20 49 -12 59 -18 50 -28
-7 -7 -14 -11 -17 -10 -3 2 -4 -12 -2 -31 4 -29 1 -34 -17 -34 -18 0 -21 -6
-21 -40 0 -22 5 -40 10 -40 6 0 10 -18 10 -40 0 -22 -4 -40 -10 -40 -5 0 -10
-9 -10 -20 0 -18 -7 -20 -80 -20 -73 0 -80 -2 -80 -20 0 -19 -7 -20 -160 -20
-153 0 -160 1 -160 20 0 19 -7 20 -160 20 -153 0 -160 1 -160 20 0 18 7 20 80
20 l80 0 0 40 0 40 60 0 60 0 0 79 c0 68 3 80 18 84 9 2 5 3 -10 1 -16 -2 -28
0 -28 5 0 14 -32 23 -44 11 -5 -5 -17 -10 -25 -10 -29 0 5 20 50 29 57 12 165
9 162 -4z m-241 -50 c-5 -27 -22 -35 -22 -11 0 8 -10 18 -22 22 -22 8 -21 8 7
14 39 8 43 5 37 -25z m-117 -5 c-3 -5 -11 -10 -16 -10 -6 0 -7 5 -4 10 3 6 11
10 16 10 6 0 7 -4 4 -10z m920 -10 c3 -5 -3 -7 -12 -5 -10 2 -21 4 -25 4 -5 1
-8 5 -8 10 0 10 38 3 45 -9z m-45 -37 c0 -7 -9 -13 -20 -13 -22 0 -29 35 -7
43 13 4 27 -11 27 -30z m-1008 -20 c-3 -16 -7 -22 -10 -15 -4 13 4 42 11 42 2
0 2 -12 -1 -27z m1116 20 c-1 -5 2 -27 6 -50 6 -33 12 -43 27 -43 12 0 19 -7
19 -20 0 -13 7 -20 20 -20 13 0 20 -7 20 -20 0 -18 -7 -20 -60 -20 l-60 0 0
50 c0 28 5 50 10 50 6 0 10 14 10 30 0 17 -4 30 -10 30 -5 0 -10 5 -10 10 0 6
7 10 15 10 8 0 14 -3 13 -7z m-1143 -42 c-3 -6 -11 -11 -16 -11 -5 0 -4 6 3
14 14 16 24 13 13 -3z m1245 -1 c0 -5 -7 -7 -15 -4 -8 4 -15 8 -15 10 0 2 7 4
15 4 8 0 15 -4 15 -10z m45 -29 c3 -5 2 -12 -3 -15 -5 -3 -9 1 -9 9 0 17 3 19
12 6z m-1385 -10 c0 -5 -10 -11 -22 -15 -19 -5 -21 -8 -8 -16 13 -8 12 -10 -2
-10 -22 0 -23 8 -1 32 17 19 33 24 33 9z m1463 -68 c-5 -12 -2 -15 9 -11 19 8
85 -56 69 -66 -6 -4 -11 -1 -11 7 0 7 -11 24 -24 36 -18 17 -25 19 -30 9 -5
-10 -7 -10 -12 -1 -3 8 -15 11 -30 7 -18 -5 -24 -2 -24 10 0 11 9 16 28 17 16
0 21 3 12 6 -14 6 -50 41 -50 50 0 2 15 -8 34 -22 24 -18 33 -32 29 -42z
m-1293 7 c0 -16 -4 -30 -10 -30 -5 0 -10 14 -10 30 0 17 5 30 10 30 6 0 10
-13 10 -30z m-215 7 c21 -16 12 -37 -16 -37 -12 0 -17 4 -13 11 3 6 -5 3 -20
-6 -32 -21 -33 -14 -3 19 27 29 28 29 52 13z m-117 -97 c-7 -10 -14 -17 -17
-15 -4 4 18 35 25 35 2 0 -1 -9 -8 -20z m1752 -75 c0 -5 -5 -3 -10 5 -5 8 -10
20 -10 25 0 6 5 3 10 -5 5 -8 10 -19 10 -25z m-1790 -5 c0 -5 -5 -10 -11 -10
-5 0 -7 5 -4 10 3 6 8 10 11 10 2 0 4 -4 4 -10z m1020 -248 l0 -88 -100 -12
c-320 -38 -586 -224 -727 -507 -54 -107 -90 -244 -96 -360 l-2 -50 -94 -2 -94
-1 7 80 c24 283 132 516 331 713 137 136 304 232 486 279 119 31 129 33 217
35 l72 1 0 -88z m682 -62 c195 -71 305 -191 324 -354 18 -148 -117 -526 -272
-764 -267 -410 -656 -692 -1123 -813 -207 -54 -331 -31 -440 80 -71 73 -151
239 -151 312 0 56 32 75 260 159 148 54 223 77 242 73 41 -8 70 -43 98 -117
14 -38 30 -66 38 -66 21 0 168 71 247 120 243 149 450 376 578 635 68 138 70
126 -23 164 -84 34 -110 61 -110 113 0 13 35 117 78 233 70 189 80 211 111
232 19 13 40 23 47 23 7 0 51 -14 96 -30z m-682 -259 l0 -68 -62 -6 c-286 -27
-517 -251 -558 -540 -6 -39 -16 -75 -23 -80 -12 -8 -113 -5 -122 5 -11 10 17
166 44 246 40 117 84 184 181 282 88 88 157 135 257 175 69 28 181 53 241 54
l42 1 0 -69z m0 -320 l0 -48 -49 -6 c-136 -16 -255 -137 -276 -281 l-7 -46
-46 0 -45 0 6 61 c9 106 86 233 174 289 23 15 40 30 38 34 -3 3 -2 4 1 1 4 -2
23 3 43 11 38 16 100 31 139 33 20 1 22 -4 22 -48z m30 -41 c0 -5 -4 -10 -10
-10 -5 0 -10 5 -10 10 0 6 5 10 10 10 6 0 10 -4 10 -10z m-353 -42 c-3 -8 -6
-5 -6 6 -1 11 2 17 5 13 3 -3 4 -12 1 -19z m243 2 c-8 -5 -22 -10 -32 -10 -11
0 -15 -6 -11 -20 4 -16 1 -19 -26 -17 -34 2 -40 11 -13 21 9 3 28 13 42 21 29
17 66 22 40 5z m73 -7 c-7 -2 -21 -2 -30 0 -10 3 -4 5 12 5 17 0 24 -2 18 -5z
m-221 -87 c-10 -14 -22 -23 -25 -20 -6 6 35 54 42 48 2 -2 -6 -14 -17 -28z
m176 -1 c7 -14 12 -37 12 -50 0 -20 5 -25 25 -25 22 0 25 -4 25 -35 0 -29 -4
-35 -21 -35 -11 0 -27 -6 -35 -14 -8 -8 -14 -24 -14 -35 0 -17 -6 -21 -35 -21
-31 0 -35 3 -35 25 0 24 -3 25 -59 25 -68 0 -78 12 -66 77 4 24 3 33 -4 28 -7
-4 -11 3 -11 16 0 20 1 21 13 7 12 -17 31 -21 80 -19 23 1 27 5 27 31 0 23 4
30 20 30 11 0 20 5 20 10 0 22 47 10 58 -15z m-236 -154 c-5 -3 -12 -15 -15
-26 -4 -19 -5 -18 -6 2 0 12 4 25 9 28 6 3 10 14 10 23 0 15 -2 15 -10 2 -5
-8 -10 -10 -10 -4 0 6 3 14 8 18 4 4 8 12 8 17 4 25 8 20 11 -15 3 -21 0 -42
-5 -45z"/>
<path d="M2301 3626 c2 -2 20 -6 39 -10 25 -4 31 -3 20 4 -14 9 -69 15 -59 6z"/>
<path d="M2373 3603 c-21 -8 -15 -43 7 -43 15 0 20 7 20 25 0 25 -4 28 -27 18z"/>
</g>
</svg>
